# xmcd
#
# Track frame offsets:
#	150
#	16697
#	32598
#	51028
#	67123
#	84103
#	97443
#	111381
#	123434
#	137595
#	154215
#	168123
#	181252
#
# Disc length: 2554 seconds
#
# Revision: 0
# Processed by: cddbd v1.5.2PL0 Copyright (c) Steve Scherf et al.
# Submitted via: audiograbber 1.83.01
#
DISCID=a509f80d
DTITLE=Jeff Bates - Demos Volume II
DYEAR=2006
DGENRE=Country
TTITLE0=Blood Sweat and Beer
TTITLE1=Born To Run
TTITLE2=I'd Die For You
TTITLE3=Lovin' The Wrong One Right
TTITLE4=Thinkin' Bout Things
TTITLE5=Goodbye Halo
TTITLE6=I'd Still Fall For You
TTITLE7=Everything We Need
TTITLE8=I Want To Kiss You There
TTITLE9=Youre Not My Baby Anymore
TTITLE10=Crazy World
TTITLE11=Nobody Died
TTITLE12=All Wrapped Up In Christmas
EXTD=
EXTT0=
EXTT1=
EXTT2=
EXTT3=
EXTT4=
EXTT5=
EXTT6=
EXTT7=
EXTT8=
EXTT9=
EXTT10=
EXTT11=
EXTT12=
PLAYORDER=
